<svg width="154" height="52" viewBox="0 0 154 52" fill="none" xmlns="http://www.w3.org/2000/svg">
<g clip-path="url(#clip0_14_1631)">
<path fill-rule="evenodd" clip-rule="evenodd" d="M45.9163 20.6209H44.4926V36.7487C44.4926 38.7732 45.9311 40.0603 47.8564 40.0603H49.3541L49.3496 24.0832C49.3496 22.2441 48.2565 20.6209 45.9163 20.6209ZM46.8131 13.0243C45.2407 13.0243 43.9607 14.3117 43.9607 15.8938C43.9607 17.4754 45.2407 18.799 46.8131 18.799C48.386 18.799 49.7029 17.4754 49.7029 15.8938C49.7029 14.3117 48.386 13.0243 46.8131 13.0243ZM62.9636 19.7558C61.2516 19.7558 59.6094 20.9126 58.1934 22.4688C57.7124 21.3937 56.7061 20.6209 55.0993 20.6209H53.6755V30.4851V36.7487V36.8241C53.6755 37.5177 53.8681 38.1486 54.2209 38.6654C54.8093 39.5491 55.8262 40.0603 57.039 40.0603H57.1126H58.5365H58.5744V29.3273C58.5744 25.9855 60.0731 24.1338 62.195 24.1338C64.7187 24.1338 66.1447 25.6034 66.1447 28.9514V36.8241C66.1447 38.6626 67.5348 40.0603 69.729 40.0603H71.0448V28.5089C71.0448 22.8824 68.1487 19.7558 62.9636 19.7558ZM101.708 19.7558C99.8429 19.7558 98.1599 21.2269 97.4293 22.4048V16.7387C97.4293 14.9002 96.2951 13.5763 93.9555 13.5763H92.4203V36.7487C92.4203 38.7732 93.4796 40.0603 95.7839 40.0603H97.3925V28.8038C97.3925 25.3104 99.404 24.1338 100.94 24.1338C103.097 24.1338 104.853 25.4216 104.853 28.6569V36.7487C104.853 38.8831 106.131 40.0603 108.181 40.0603H109.789V28.4361C109.789 22.809 106.79 19.7558 101.708 19.7558ZM122.658 19.7558C116.294 19.7558 112.893 24.5382 112.893 30.4957C112.893 35.7555 116.294 40.5021 122.218 40.5021C128.58 40.5021 131.981 35.7555 131.981 29.798C131.981 24.5382 128.58 19.7558 122.658 19.7558ZM122.658 36.0877C119.402 36.0877 117.976 33.7335 117.976 29.798C117.976 26.5238 119.402 24.1705 122.218 24.1705C125.436 24.1705 126.9 26.5238 126.9 30.4957C126.9 33.7335 125.51 36.0877 122.658 36.0877ZM144.414 19.9675C138.05 19.9675 134.648 24.7492 134.648 30.7074C134.648 35.9671 138.05 40.7135 143.973 40.7135C150.338 40.7135 153.739 35.9671 153.739 30.0094C153.739 24.7492 150.338 19.9675 144.414 19.9675ZM144.414 36.2993C141.158 36.2993 139.733 33.9449 139.733 30.0094C139.733 26.7351 141.158 24.3819 143.973 24.3819C147.193 24.3819 148.655 26.7351 148.655 30.7074C148.655 33.9449 147.265 36.2993 144.414 36.2993ZM84.6504 35.9382C80.8604 35.9382 79.1547 33.4739 79.1547 29.868C79.1547 26.926 81.7628 24.6742 84.5304 24.6076L85.6662 24.5618C89.3908 24.4528 89.0358 20.2224 89.0358 20.2224L85.554 20.0833C77.5324 20.0833 74.0355 24.9396 74.0355 30.6041C74.0355 36.2689 78.5195 40.4987 83.4659 40.4987C90.2405 40.4987 89.6593 35.6217 89.6593 35.6217C89.6593 35.6217 86.4842 35.9382 84.6504 35.9382Z" fill="#404041"/>
<path fill-rule="evenodd" clip-rule="evenodd" d="M9.72794 40.1002C4.24197 40.1002 0.435211 36.04 0.435211 30.5674V5.03949H25.303C30.6987 5.03949 34.7684 9.36414 34.7684 14.7497V40.1002H9.72794ZM30.7697 14.7497C30.7697 12.1366 29.059 9.4134 25.303 9.4134H4.34638V30.5674C4.34638 33.0681 5.69122 35.7272 9.72794 35.7272H25.5288L14.7893 23.4461C14.4793 23.0354 14.2948 22.5222 14.2948 21.9668C14.2948 20.6149 15.3843 19.5187 16.7285 19.5187C17.2424 19.5187 17.7203 19.6788 18.1137 19.9527L30.7697 29.8574V14.7497ZM10.4178 18.799C8.84596 18.799 7.56637 17.4754 7.56637 15.8938C7.56637 14.3117 8.84596 13.0243 10.4178 13.0243C11.9913 13.0243 13.3076 14.3117 13.3076 15.8938C13.3076 17.4754 11.9913 18.799 10.4178 18.799Z" fill="#79AD36"/>
</g>
<defs>
<clipPath id="clip0_14_1631">
<rect width="154" height="36" fill="white" transform="translate(0 5)"/>
</clipPath>
</defs>
</svg>
